<?xml version="1.0" encoding="UTF-8"?>
<svg viewBox="0 0 744.09447 1052.362179" xmlns="http://www.w3.org/2000/svg">
 <path d="m310.06 655.31c-122.25 1e-5 -221.47-99.225-221.47-221.47 0-60.886 24.713-115.94 64.531-155.97l0.1875 0.1875c8.0497-11.113 21.051-18.406 35.812-18.406 24.449 0 44.312 19.832 44.312 44.281 0 14.992-7.4971 28.204-18.906 36.219l0.15625 0.15625c-23.926 24.097-38.906 56.998-38.906 93.531 0 73.701 60.11 133.53 134.16 133.53s134.12-59.83 134.12-133.53c-1e-5 -33.343-12.54-63.58-32.906-86.938-12.115-7.9066-20.187-21.527-20.188-37.062 0-24.449 19.864-44.313 44.312-44.312 11.953 0 22.748 4.8266 30.719 12.531l0.625-0.625c40.052 40.057 64.875 95.319 64.875 156.41 3e-5 122.24-99.192 221.47-221.44 221.47zm-0.03125-219.94c-24.537 0-44.281-20.102-44.281-45.094v-178.66c0-24.991 19.744-45.094 44.281-45.094s44.313 20.102 44.312 45.094v178.66c0 24.991-19.775 45.094-44.312 45.094z" fill-rule="evenodd"/>
</svg>
